<?xml version="1.0" encoding="UTF-8"?>
<!DOCTYPE svg PUBLIC "-//W3C//DTD SVG 1.1//EN" "http://www.w3.org/Graphics/SVG/1.1/DTD/svg11.dtd">
<!-- Creator: urnet @ CorelDRAW 2021 (64-Bit) -->
<svg xmlns="http://www.w3.org/2000/svg" xml:space="preserve" width="4.48819in" height="6.88976in" version="1.1" style="shape-rendering:geometricPrecision; text-rendering:geometricPrecision; image-rendering:optimizeQuality; fill-rule:evenodd; clip-rule:evenodd"
viewBox="0 0 4488.19 6889.76"
 xmlns:xlink="http://www.w3.org/1999/xlink"
 xmlns:xodm="http://www.corel.com/coreldraw/odm/2003">
 <defs>
  <style type="text/css">
   <![CDATA[
    .fil0 {fill:#003399;fill-rule:nonzero}
   ]]>
  </style>
 </defs>
 <g id="Layer_x0020_1">
  <metadata id="CorelCorpID_0Corel-Layer"/>
  <path class="fil0" d="M3631.33 3447.15c0,379.79 -136.69,701.98 -410.06,967.06 -272.89,265.07 -599.96,397.37 -980.24,397.37 -380.77,0 -707.35,-132.29 -980.24,-397.37 -272.89,-265.07 -409.08,-587.26 -409.08,-967.06 0,-379.31 136.69,-702.47 410.55,-969.5 271.91,-264.1 598,-395.9 978.77,-395.9 380.28,0 706.37,131.8 978.28,395.9 274.84,267.02 412.01,590.19 412.01,969.5zm-76.15 0c0,-351.97 -135.71,-659.02 -407.62,-921.17l-45.89 78.59 -220.16 -58.58 -168.91 47.35 -81.52 220.17 -180.13 47.35 -24.41 185.99 -74.2 -34.66 -58.58 157.68 52.72 284.6 -63.95 121.55 -123.02 5.37 29.78 163.05c-94.22,-53.21 -205.03,-128.87 -331.95,-227.48l-214.31 -20.02c-23.92,-12.2 -62.48,-29.29 -115.69,-51.26 -62.97,81.04 -144.98,170.86 -246.04,270.44l-5.86 104.47 -47.35 95.68 -52.72 -4.39 -178.67 -358.8 5.37 -104.46 -74.2 -4.39 0 2.93c0,358.31 129.85,663.42 389.07,915.31 256.29,248.47 564.32,372.96 924.1,372.96 359.29,0 668.3,-124.97 926.54,-375.4 258.24,-249.94 387.6,-554.56 387.6,-912.87zm-846.48 -514.53l-71.76 43.94 -58.58 0 58.58 -98.61 40.03 7.32 31.73 47.35zm-107.39 108.37c-27.83,62.97 -77.13,147.91 -148.89,254.82l-34.17 6.83c49.3,-136.2 97.15,-230.91 143.03,-284.6l40.03 22.94zm232.85 601.91l-37.1 94.7 -89.82 -8.79 126.93 -85.92zm73.22 226.02l-55.65 21.48 38.56 -81.52 17.09 60.05zm417.38 195.75l-43.94 100.07c-66.88,42.96 -135.22,88.36 -204.54,136.2l-45.89 103.98 -41.49 30.27 -33.2 -50.28c32.71,-71.27 65.41,-123.02 99.1,-154.26l97.15 -42.96c23.92,-61.02 51.26,-110.81 82.99,-150.35l41.49 62.97 48.33 -35.64zm-763.49 -232.85l-111.79 -62.97 105.93 -32.71 5.86 95.68zm-173.3 -47.35l-41.49 58.58 -74.2 -100.07 115.69 41.5zm539.43 367.59c-14.16,89.82 -78.11,190.39 -191.85,301.69l-69.81 5.86 -239.2 -98.61 -226.02 11.22c0.98,-52.23 -20.02,-114.23 -63.95,-185.99 14.16,-66.39 52.72,-136.2 115.7,-208.45 135.22,15.13 249.94,-4.39 343.18,-58.58l100.07 81.52 57.12 -151.82c32.7,103 90.8,204.05 174.76,303.15zm-759.59 -369.05l-42.96 37.59 -52.72 -31.73 95.68 -5.86zm633.64 735.18l-31.24 40.03 -94.7 -5.86 71.76 -58.58 54.19 24.41zm-1259.95 -580.43c-58.09,53.21 -116.19,95.68 -174.76,126.92l-69.81 -31.24 123.02 -127.41 121.56 31.73z"/>
 </g>
</svg>
