<?xml version="1.0" encoding="UTF-8"?>
<!DOCTYPE svg PUBLIC "-//W3C//DTD SVG 1.1//EN" "http://www.w3.org/Graphics/SVG/1.1/DTD/svg11.dtd">
<!-- Creator: CorelDRAW 2021 (64-Bit) -->
<svg xmlns="http://www.w3.org/2000/svg" xml:space="preserve" width="10in" height="10in" version="1.1" style="shape-rendering:geometricPrecision; text-rendering:geometricPrecision; image-rendering:optimizeQuality; fill-rule:evenodd; clip-rule:evenodd"
viewBox="0 0 10000 10000"
 xmlns:xlink="http://www.w3.org/1999/xlink"
 xmlns:xodm="http://www.corel.com/coreldraw/odm/2003">
 <defs>
  <style type="text/css">
   <![CDATA[
    .fil0 {fill:white;fill-rule:nonzero}
   ]]>
  </style>
 </defs>
 <g id="Layer_x0020_1">
  <metadata id="CorelCorpID_0Corel-Layer"/>
  <path class="fil0" d="M3952.8 2320.32l-62.23 25.7 -15.26 -18.87 56.61 -25.7 20.87 18.87zm-84.71 48.18l-48.18 77.48 -77.48 40.15 -22.48 -26.1 77.89 -43.36 25.7 -75.07 44.56 26.9zm-11.64 165.81l-25.7 18.87 -22.48 -70.66 15.26 3.61 32.92 48.18zm41.35 308.33l-155.37 -32.92 -4.82 -55.4 145.74 36.54 14.45 51.79zm222.02 301.11l-55 67.05 -26.09 -3.61 -6.83 -37.74 67.05 -73.87 -27.3 -41.35 15.26 -22.48 26.09 37.74 6.83 74.27zm-418.74 -397.86l-29.31 51.79 -25.69 -3.21 25.69 -59.02 29.31 10.44zm-55 -10.44l-30.91 59.02 -55 -14.45 3.21 -44.56 48.58 -48.18 34.13 48.18zm478.56 -572.1l-103.58 10.44 3.61 37.74 -62.23 81.1 -12.04 -73.87 34.12 -44.96 -118.83 12.04 -70.26 36.53 -8.43 30.52 49.38 -12.05 3.61 70.66 -34.13 3.61 -10.44 34.12 -67.04 44.57 10.44 29.31 -43.36 29.71 -15.26 -51.79 -29.71 15.26 7.22 103.58 -126.06 73.87 32.92 48.18 -55 32.92 -22.48 -43.36 -11.64 3.61 11.64 48.18 44.56 29.31 -15.26 15.26 -29.31 -8.03 7.22 22.08 25.7 3.61 15.26 44.57 67.05 26.09 3.61 22.48 -77.48 -14.06 -108.4 -118.83 44.56 3.21 -63.43 -137.31 0 -37.74 -17.67 0 -8.03 34.13 -62.23 48.18 0 44.56 -48.58 14.05 -30.51 -84.71 -20.88 -6.82 3.21 -49.38 -178.66 -32.92 29.31 48.18 30.51 -10.44 32.92 32.92 -32.92 40.95 -78.69 29.31 -81.1 -156.17 -22.48 0 -3.21 30.51 55 110.41 41.35 30.51 63.43 -4.42 -115.22 167.02 14.05 15.26 4.82 55.4 -34.13 25.7 -3.61 41.35 -89.53 108 -70.26 -4.81 -62.63 -170.23 18.87 -26.09 0 -44.56 -52.99 -62.63 22.48 -15.26 -51.79 -32.92 -103.58 -3.21 -59.82 -53 -3.61 -114.02 134.09 -115.62 74.27 -6.83 18.47 21.28 -4.42 18.47 59.82 18.87 29.31 -25.7 22.48 18.87 81.1 3.61 15.26 -15.66 0 -44.56 -32.92 44.56 -44.56 -58.62 7.22 58.62 -41.35 -29.31 -7.23 -44.57 -49.38 -57.81 -9.24 9.63 40.15 55 -26.1 37.74 -10.44 -44.57 -44.96 -32.92 -25.7 22.48 -15.26 -8.43 -84.71 78.69 -30.51 -82.3 59.82 3.61 10.84 -25.7 -22.48 -22.48 37.74 -29.31 22.08 -3.61 41.35 -37.74 -11.64 -29.31 22.08 -10.44 15.26 22.08 74.27 -4.42 3.61 -21.28 81.09 -30.51 -14.05 -18.07 -51.79 18.07 -15.26 -33.32 37.33 -29.71 -22.08 -22.48 -48.18 63.03 17.67 15.26 -3.61 37.74 -48.18 14.05 -10.84 -29.31 -51.79 6.82 3.61 -44.56 84.71 -114.82 93.14 -22.48 140.92 32.92 -25.69 37.74 -55.4 -4.41 36.53 37.74 108 -71.06 70.66 0 -48.18 -55.41 55.41 -56.61 77.48 -32.92 11.64 26.09 -73.87 25.7 -41.35 44.96 84.71 51.79 -14.05 -26.1 51.79 -44.56 92.74 22.08 14.45 -29.31 167.01 -63.43 115.22 25.7 -84.71 48.18 263.37 27.3 44.56 -44.56 21.28 39.74 126.87 11.65 36.54 19.27 103.58 -12.04 0 142.12zm-185.89 832.26l-63.43 118.43 -51.79 -4.42 -99.97 -74.27 -3.61 18.87 -122.05 25.69 14.05 -51.39 -26.09 -10.84 0 -63.43 160.19 -103.58 73.87 48.18 3.61 -40.95 22.48 -3.61 92.74 141.32zm-1306.8 -750.76l-3.61 30.91 -51.39 0 15.26 -30.91 -34.13 -36.13 25.7 -26.09 15.26 36.54 32.92 25.69zm-103.58 -139.71l-67.04 48.18 -39.75 -60.22 73.87 -18.47 32.92 30.51zm209.57 321.18l-22.48 -8.43 14.05 -22.48 8.43 30.91zm-224.83 -592.98l-43.36 37.74 -8.43 92.74 -67.05 103.58 -106.79 32.92 -26.1 63.43 -48.18 -3.61 -55 -85.51 -22.48 -114.42 -44.56 -34.13 -48.58 15.66 -25.69 -34.13 81.09 -100.37 334.03 -40.95 81.1 67.05zm53 423.56l-22.08 25.7 -26.09 -22.48 21.28 -37.34 26.9 34.13zm493.01 616.26l-32.92 106.8 -48.18 -32.92 14.05 -48.18 48.18 -37.74 18.87 12.04zm-1053.87 -327.2l-29.71 -15.26 0 -25.69 29.71 40.95zm108 70.66l-18.87 7.22 -92.74 -32.92 6.82 -18.87 104.79 44.57zm-130.48 -55.41l-7.23 22.48 -57.41 -11.65 6.02 -28.1 58.62 17.26zm349.28 258.95l-29.31 34.13 -8.43 67.04 -225.63 240.89c7.63,14.45 10.04,30.51 6.83,48.58l-29.31 29.31 26.09 32.92 -22.48 25.7 -58.62 -65.84 0 -108c0,0 12.04,-70.66 36.13,-211.98l-48.18 -22.08 -51.79 -129.68 22.48 -32.92 0 -37.34 -51.79 0 -22.48 -44.96 -29.31 3.61 -104.78 -58.62 -32.92 -41.35 -40.95 0 -111.61 -148.15 4.41 -74.27 -37.33 -55 -26.1 6.83 -18.87 -37.34 22.48 3.21 -55.4 -58.61 -73.87 -11.65 -179.06 89.13 63.43 -62.23 -44.57 -34.13 -18.87 -125.66 74.27 -37.74 356.51 37.74 -67.04 -48.58 15.26 -63.43 356.11 -136.5 137.71 7.22 -122.45 137.7 162.6 132.89 -51.79 55 -96.35 -17.67 11.65 -59.82 -34.13 0 -14.05 41.35 10.44 36.13 -73.87 -6.83 -37.74 51.79 26.9 22.08 51.79 15.66 48.18 55 17.67 -55 -10.44 -12.04 0 -55 115.22 18.46 92.74 112.01 -130.48 73.87 0 40.15 -22.48 -3.61 -22.08 22.48 4.81 29.31 -52.99 44.56 15.26 48.18 -26.1 0 -22.08 -32.92 -81.1 0 -30.91 55.41 30.91 29.31 14.05 0 29.31 -17.67 18.87 10.84 -7.23 40.95 29.31 3.61 7.23 44.56 53 0 51.79 -22.08 36.54 14.05 69.06 2.41 4.81 45.77 56.61 0 6.82 53 37.74 0 99.97 65.84zm-1150.23 -709.01l-111.61 -3.61 -26.09 10.84 29.31 29.71 -61.02 15.26 0 -142.12 150.55 60.22 18.87 29.71zm155.37 472.54l-14.46 26.09 -51.39 -34.13 -34.13 18.87 -81.5 -48.58 7.22 -22.08 92.74 37.34 36.53 -18.47 44.97 40.95zm-207.16 -85.92l-41.35 26.09 -22.08 -48.18 63.43 22.08zm418.74 478.96l-22.48 22.08 -32.92 -22.08 22.48 -22.48 32.92 22.48zm-58.61 -32.92l-26.1 14.05 -34.12 -22.48 25.69 -32.92 34.53 41.35zm1670.13 -569.29l-3.61 -29.71 -18.87 2.41 2.41 29.31 20.07 -2.01zm-67.04 48.18l-23.69 -48.18 20.07 -27.3 -10.84 -11.65 -20.88 16.46 4.42 78.69 30.91 -8.03zm-114.42 -49.38l-26.9 -43.76 -25.7 -4.42 2.01 19.67 -22.08 2.41 -18.87 -24.49 -32.92 40.95 6.02 26.09 29.31 -22.48 23.28 0c0,0 22.08,2.01 65.84,6.02z"/>
 </g>
</svg>
