<?xml version="1.0" encoding="UTF-8"?>
<!DOCTYPE svg PUBLIC "-//W3C//DTD SVG 1.1//EN" "http://www.w3.org/Graphics/SVG/1.1/DTD/svg11.dtd">
<!-- Creator: urnet @ CorelDRAW 2021 (64-Bit) -->
<svg xmlns="http://www.w3.org/2000/svg" xml:space="preserve" width="10in" height="10in" version="1.1" style="shape-rendering:geometricPrecision; text-rendering:geometricPrecision; image-rendering:optimizeQuality; fill-rule:evenodd; clip-rule:evenodd"
viewBox="0 0 10000 10000"
 xmlns:xlink="http://www.w3.org/1999/xlink"
 xmlns:xodm="http://www.corel.com/coreldraw/odm/2003">
 <defs>
  <style type="text/css">
   <![CDATA[
    .fil0 {fill:white;fill-rule:nonzero}
   ]]>
  </style>
 </defs>
 <g id="Layer_x0020_1">
  <metadata id="CorelCorpID_0Corel-Layer"/>
  <path class="fil0" d="M7140.63 2439.82l-124.86 51.56 -30.61 -37.86 113.58 -51.56 41.89 37.86zm-169.97 96.67l-96.67 155.47 -155.47 80.56 -45.11 -52.36 156.28 -87 51.56 -150.64 89.42 53.97zm-23.36 332.69l-51.56 37.86 -45.11 -141.78 30.61 7.25 66.06 96.67zm82.97 618.67l-311.75 -66.06 -9.67 -111.17 292.42 73.31 29 103.92zm445.47 604.17l-110.36 134.53 -52.36 -7.25 -13.7 -75.72 134.53 -148.22 -54.78 -82.97 30.61 -45.11 52.36 75.72 13.69 149.03zm-840.2 -798.31l-58.8 103.91 -51.56 -6.44 51.56 -118.42 58.8 20.94zm-110.36 -20.94l-62.03 118.42 -110.36 -29 6.44 -89.42 97.47 -96.67 68.47 96.67zm960.23 -1147.92l-207.83 20.94 7.25 75.72 -124.86 162.72 -24.17 -148.22 68.47 -90.22 -238.44 24.17 -140.97 73.31 -16.92 61.22 99.08 -24.17 7.25 141.78 -68.47 7.25 -20.94 68.47 -134.53 89.42 20.94 58.81 -87 59.61 -30.61 -103.92 -59.61 30.61 14.5 207.83 -252.94 148.22 66.06 96.67 -110.36 66.06 -45.11 -87 -23.36 7.25 23.36 96.67 89.42 58.81 -30.61 30.61 -58.81 -16.11 14.5 44.3 51.56 7.25 30.61 89.42 134.53 52.36 7.25 45.11 -155.47 -28.2 -217.5 -238.44 89.42 6.44 -127.28 -275.5 0 -75.72 -35.44 0 -16.11 68.47 -124.86 96.67 0 89.42 -97.47 28.19 -61.22 -169.97 -41.89 -13.69 6.44 -99.08 -358.47 -66.06 58.8 96.67 61.22 -20.94 66.06 66.06 -66.06 82.17 -157.89 58.8 -162.72 -313.36 -45.11 0 -6.44 61.22 110.36 221.53 82.97 61.22 127.28 -8.86 -231.2 335.11 28.2 30.61 9.67 111.17 -68.47 51.56 -7.25 82.97 -179.64 216.69 -140.97 -9.67 -125.67 -341.56 37.86 -52.36 0 -89.42 -106.33 -125.67 45.11 -30.61 -103.92 -66.06 -207.83 -6.44 -120.03 -106.33 -7.25 -228.78 269.06 -232 149.03 -13.7 37.06 42.7 -8.86 37.06 120.03 37.86 58.8 -51.56 45.11 37.86 162.72 7.25 30.61 -31.42 0 -89.42 -66.06 89.42 -89.42 -117.61 14.5 117.61 -82.97 -58.81 -14.5 -89.42 -99.08 -116 -18.53 19.33 80.56 110.36 -52.36 75.72 -20.94 -89.42 -90.22 -66.06 -51.56 45.11 -30.61 -16.92 -169.98 157.89 -61.22 -165.14 120.03 7.25 21.75 -51.56 -45.11 -45.11 75.72 -58.8 44.31 -7.25 82.97 -75.72 -23.36 -58.81 44.3 -20.94 30.61 44.31 149.03 -8.86 7.25 -42.69 162.72 -61.22 -28.2 -36.25 -103.91 36.25 -30.61 -66.86 74.92 -59.61 -44.3 -45.11 -96.67 126.47 35.44 30.61 -7.25 75.72 -96.67 28.19 -21.75 -58.81 -103.92 13.7 7.25 -89.42 169.97 -230.39 186.89 -45.11 282.75 66.06 -51.56 75.72 -111.17 -8.86 73.31 75.72 216.7 -142.58 141.78 0 -96.67 -111.17 111.17 -113.58 155.47 -66.06 23.36 52.36 -148.22 51.56 -82.97 90.22 169.98 103.92 -28.2 -52.36 103.92 -89.42 186.08 44.3 29 -58.8 335.11 -127.28 231.19 51.56 -169.97 96.67 528.45 54.78 89.41 -89.42 42.7 79.75 254.56 23.36 73.31 38.67 207.83 -24.17 0 285.17zm-372.98 1669.92l-127.28 237.64 -103.92 -8.86 -200.58 -149.03 -7.25 37.86 -244.89 51.56 28.19 -103.11 -52.36 -21.75 0 -127.28 321.42 -207.83 148.22 96.67 7.25 -82.17 45.11 -7.25 186.08 283.56zm-2622.09 -1506.39l-7.25 62.03 -103.11 0 30.61 -62.03 -68.47 -72.5 51.56 -52.36 30.61 73.31 66.06 51.56zm-207.83 -280.33l-134.53 96.67 -79.75 -120.83 148.22 -37.06 66.06 61.22zm420.5 644.45l-45.11 -16.92 28.19 -45.11 16.92 62.03zm-451.11 -1189.81l-87 75.72 -16.92 186.08 -134.53 207.83 -214.28 66.06 -52.36 127.28 -96.67 -7.25 -110.36 -171.58 -45.11 -229.58 -89.41 -68.47 -97.47 31.41 -51.56 -68.47 162.72 -201.39 670.22 -82.17 162.72 134.53zm106.33 849.87l-44.31 51.56 -52.36 -45.11 42.69 -74.91 53.97 68.47zm989.22 1236.53l-66.06 214.28 -96.67 -66.06 28.19 -96.67 96.67 -75.72 37.86 24.17zm-2114.59 -656.53l-59.61 -30.61 0 -51.56 59.61 82.17zm216.69 141.78l-37.86 14.5 -186.08 -66.06 13.7 -37.86 210.25 89.42zm-261.81 -111.17l-14.5 45.11 -115.19 -23.36 12.08 -56.39 117.61 34.64zm700.84 519.59l-58.81 68.47 -16.92 134.53 -452.72 483.33c15.31,29 20.14,61.22 13.7,97.47l-58.81 58.81 52.36 66.06 -45.11 51.56 -117.61 -132.11 0 -216.7c0,0 24.17,-141.78 72.5,-425.33l-96.67 -44.31 -103.92 -260.19 45.11 -66.06 0 -74.92 -103.92 0 -45.11 -90.22 -58.81 7.25 -210.25 -117.61 -66.06 -82.97 -82.17 0 -223.94 -297.25 8.86 -149.03 -74.92 -110.36 -52.36 13.69 -37.86 -74.92 45.11 6.44 -111.17 -117.61 -148.22 -23.36 -359.28 178.83 127.28 -124.86 -89.42 -68.47 -37.86 -252.14 149.03 -75.72 715.33 75.72 -134.53 -97.47 30.61 -127.28 714.53 -273.89 276.31 14.5 -245.7 276.31 326.25 266.64 -103.92 110.36 -193.33 -35.44 23.36 -120.03 -68.47 0 -28.19 82.97 20.94 72.5 -148.22 -13.69 -75.72 103.92 53.97 44.3 103.92 31.42 96.67 110.36 35.44 -110.36 -20.94 -24.17 0 -110.36 231.19 37.06 186.09 224.75 -261.81 148.22 0 80.56 -45.11 -7.25 -44.31 45.11 9.67 58.81 -106.33 89.42 30.61 96.67 -52.36 0 -44.31 -66.06 -162.72 0 -62.03 111.17 62.03 58.81 28.19 0 58.81 -35.44 37.86 21.75 -14.5 82.17 58.8 7.25 14.5 89.42 106.33 0 103.92 -44.31 73.31 28.19 138.56 4.83 9.67 91.83 113.58 0 13.7 106.33 75.72 0 200.59 132.11zm-2307.93 -1422.61l-223.94 -7.25 -52.36 21.75 58.81 59.61 -122.44 30.61 0 -285.17 302.08 120.83 37.86 59.61zm311.75 948.14l-29 52.36 -103.11 -68.47 -68.47 37.86 -163.53 -97.47 14.5 -44.31 186.09 74.92 73.3 -37.06 90.22 82.17zm-415.67 -172.39l-82.97 52.36 -44.3 -96.67 127.28 44.31zm840.2 961.03l-45.11 44.31 -66.06 -44.31 45.11 -45.11 66.06 45.11zm-117.61 -66.06l-52.36 28.2 -68.47 -45.11 51.56 -66.06 69.28 82.97zm3351.12 -1142.28l-7.25 -59.61 -37.86 4.83 4.83 58.81 40.28 -4.03zm-134.53 96.67l-47.53 -96.67 40.28 -54.78 -21.75 -23.36 -41.89 33.03 8.86 157.89 62.03 -16.11zm-229.58 -99.08l-53.97 -87.81 -51.56 -8.86 4.03 39.47 -44.31 4.83 -37.86 -49.14 -66.06 82.17 12.08 52.36 58.81 -45.11 46.72 0c0,0 44.3,4.03 132.11,12.08z"/>
 </g>
</svg>
